<svg id="visual" viewBox="0 0 900 600" width="900" height="600" xmlns="http://www.w3.org/2000/svg" xmlns:xlink="http://www.w3.org/1999/xlink" version="1.1"><rect x="0" y="0" width="900" height="600" fill="#F3F9F4"></rect><path d="M0 387L13.7 392.2C27.3 397.3 54.7 407.7 82 421.2C109.3 434.7 136.7 451.3 163.8 453C191 454.7 218 441.3 245.2 433.3C272.3 425.3 299.7 422.7 327 428.7C354.3 434.7 381.7 449.3 409 455.3C436.3 461.3 463.7 458.7 491 448.3C518.3 438 545.7 420 573 421C600.3 422 627.7 442 654.8 442.3C682 442.7 709 423.3 736.2 424.5C763.3 425.7 790.7 447.3 818 445.3C845.3 443.3 872.7 417.7 886.3 404.8L900 392L900 601L886.3 601C872.7 601 845.3 601 818 601C790.7 601 763.3 601 736.2 601C709 601 682 601 654.8 601C627.7 601 600.3 601 573 601C545.7 601 518.3 601 491 601C463.7 601 436.3 601 409 601C381.7 601 354.3 601 327 601C299.7 601 272.3 601 245.2 601C218 601 191 601 163.8 601C136.7 601 109.3 601 82 601C54.7 601 27.3 601 13.7 601L0 601Z" fill="#A8D5BA" stroke-linecap="round" stroke-linejoin="miter"></path></svg>