<svg id="visual" viewBox="0 0 900 600" width="900" height="600" xmlns="http://www.w3.org/2000/svg" xmlns:xlink="http://www.w3.org/1999/xlink" version="1.1"><path d="M0 395L13.7 404.2C27.3 413.3 54.7 431.7 82 438.7C109.3 445.7 136.7 441.3 163.8 432C191 422.7 218 408.3 245.2 400C272.3 391.7 299.7 389.3 327 387.3C354.3 385.3 381.7 383.7 409 395.2C436.3 406.7 463.7 431.3 491 435.8C518.3 440.3 545.7 424.7 573 413.3C600.3 402 627.7 395 654.8 397.5C682 400 709 412 736.2 425C763.3 438 790.7 452 818 448.7C845.3 445.3 872.7 424.7 886.3 414.3L900 404L900 601L886.3 601C872.7 601 845.3 601 818 601C790.7 601 763.3 601 736.2 601C709 601 682 601 654.8 601C627.7 601 600.3 601 573 601C545.7 601 518.3 601 491 601C463.7 601 436.3 601 409 601C381.7 601 354.3 601 327 601C299.7 601 272.3 601 245.2 601C218 601 191 601 163.8 601C136.7 601 109.3 601 82 601C54.7 601 27.3 601 13.7 601L0 601Z" fill="#2C2C2C" stroke-linecap="round" stroke-linejoin="miter"></path></svg>