<svg id="visual" viewBox="0 0 900 600" width="900" height="600" xmlns="http://www.w3.org/2000/svg" xmlns:xlink="http://www.w3.org/1999/xlink" version="1.1"><rect width="900" height="600" fill="#F3F9F4"></rect><g><g transform="translate(178 267)"><path d="M39.8 -12.7C44.7 2.2 37.1 21.4 22.8 31.9C8.4 42.4 -12.6 44.3 -26.3 34.7C-40 25.1 -46.4 3.9 -40.8 -11.9C-35.2 -27.7 -17.6 -38.2 -0.1 -38.2C17.4 -38.2 34.9 -27.6 39.8 -12.7Z" fill="#A8D5BA"></path></g><g transform="translate(634 258)"><path d="M25.6 -7.6C29.1 2.3 24.9 15.4 15.9 21.9C6.9 28.4 -6.9 28.4 -16 21.9C-25 15.3 -29.4 2.2 -25.9 -7.7C-22.5 -17.5 -11.2 -24.1 -0.1 -24.1C11.1 -24.1 22.2 -17.4 25.6 -7.6Z" fill="#A8D5BA"></path></g><g transform="translate(614 569)"><path d="M31.9 -8.5C36.7 4.4 32.8 22 21.2 30.8C9.6 39.6 -9.5 39.5 -20.2 31C-30.9 22.5 -33.1 5.5 -28.3 -7.4C-23.5 -20.2 -11.8 -29 0.9 -29.3C13.6 -29.6 27.1 -21.4 31.9 -8.5Z" fill="#A8D5BA"></path></g><g transform="translate(268 67)"><path d="M26.9 -9.1C29.9 0.6 24 12.8 14.3 19.9C4.6 27 -9 29 -16.8 23.3C-24.7 17.5 -26.9 4.1 -23.1 -6.6C-19.3 -17.3 -9.7 -25.1 1.1 -25.5C11.9 -25.8 23.8 -18.7 26.9 -9.1Z" fill="#A8D5BA"></path></g><g transform="translate(61 135)"><path d="M23.3 -8C26.9 3.4 24.1 16.4 15.3 23.3C6.4 30.3 -8.5 31.3 -16.9 24.8C-25.4 18.3 -27.3 4.4 -23.4 -7.4C-19.5 -19.2 -9.8 -28.9 0.1 -29C9.9 -29 19.8 -19.3 23.3 -8Z" fill="#A8D5BA"></path></g><g transform="translate(723 39)"><path d="M21.4 -7.7C24.6 2.8 21.8 14.5 13.7 20.8C5.6 27.1 -7.8 28.2 -16.3 22.1C-24.8 16 -28.4 2.8 -24.9 -8.2C-21.4 -19.2 -10.7 -28.1 -0.8 -27.8C9.1 -27.6 18.3 -18.2 21.4 -7.7Z" fill="#A8D5BA"></path></g><g transform="translate(704 447)"><path d="M26.4 -7.2C30.6 4.4 28 19.7 18.1 27.4C8.3 35.1 -8.8 35.4 -18.7 27.7C-28.6 20 -31.4 4.5 -27.1 -7.3C-22.8 -19.1 -11.4 -27 -0.2 -27C11.1 -26.9 22.1 -18.9 26.4 -7.2Z" fill="#A8D5BA"></path></g><g transform="translate(16 389)"><path d="M38.7 -13.5C43.6 2.5 36.5 21.4 22.9 31.2C9.3 41 -10.7 41.6 -22.8 32.6C-34.9 23.5 -39 4.7 -33.9 -11.5C-28.8 -27.8 -14.4 -41.5 1.3 -41.9C16.9 -42.3 33.8 -29.4 38.7 -13.5Z" fill="#A8D5BA"></path></g><g transform="translate(517 418)"><path d="M30 -9.9C33.9 2.2 28.7 17.2 17.8 25.2C7 33.2 -9.3 34.3 -20.1 26.7C-30.9 19.1 -36.2 2.8 -31.9 -9.8C-27.6 -22.5 -13.8 -31.5 -0.4 -31.4C13.1 -31.3 26.1 -22 30 -9.9Z" fill="#A8D5BA"></path></g></g></svg>